<svg
    xmlns="http://www.w3.org/2000/svg"
    preserveAspectRatio="xMidYMid meet"
    version="1.0"
    viewBox="0 0 468 551"
     width="48"
     height="48">
  <g fill-opacity="1" fill-rule="evenodd" stroke-linecap="butt" stroke-linejoin="miter" stroke-opacity="1" display="inline">
    <path d="M314.593 51.488 294.312 82.5l96.148 111.602c4.512-18.463 7.814 1.677 11.502 9.483 9.878 22.334 11.416 47.222 14.496 71.119 5.83 45.229 3.909 71.702-.24 96.382-13.444 79.975-61.135 126.653-106.685 153.529-15.58 9.193-30.577 15.62-52.573 18.622-22.665 3.092-44.872 1.868-67.625-2.565-18.785-3.66-37.678-9.829-55.027-17.78-27.663-12.677-50.497-34.62-68.37-58.691-17.29-23.288-28.196-51.076-36.48-78.922-15.066-50.65-21.436-104.589-9.418-156.694 7.49-32.479 18.292-64.643 33.064-94.3 15.676-31.471 37.71-59.974 64.381-83.609 16.017-14.193 33.428-27.271 53.03-35.166 14.378-5.79 29.598-7.096 45.31-6.06 15.537 1.025 30.366 2.765 45.167 8.029 20.14 7.162 39.12 18.366 53.6 34.01z" fill="#ffcfab" stroke="#000" stroke-dasharray="none" stroke-miterlimit="4" stroke-width="4.327" display="inline"/>
    <path d="m165.41 186.372-11.16-28.33 12.019-6.009 24.038-3.435 44.64-54.941 24.895 3.434 16.311-8.585 12.019-2.576-18.886 41.207-36.914 4.292-66.961 54.943z" fill="#f39105" stroke="#000" stroke-width="1.041"/>
    <path d="m325.944 71.336 19.746 24.896 5.15 8.585-37.773-12.877 4.293-12.019 8.584-8.585z" fill="#ffcfab" stroke="#000" stroke-width="1.041" display="inline"/>
    <path d="m311.35 90.223 18.887 10.301 19.744 6.01-26.612 14.594-19.744-1.718-1.718-13.735 9.444-15.452z" fill="#f39a05" stroke="#000" stroke-width="1.041" display="inline"/>
    <path d="m166.269 188.088 13.736 22.32-13.736 35.198 32.622 6.01 6.867 6.867 20.604 31.763 65.244-34.339 19.422 5.366 20.926-6.224-14.594-15.452 2.575-4.293 6.868-4.292 3.434 11.16 6.01 13.735 16.31 19.746 4.292-2.576.859-12.877 15.16-2.67 5.35-4.157 13.393-1.623 3.44-16.875-9.872-40.777v-17.17l15.453-2.575 13.735 10.301 19.744 5.151 7.727-1.717L418.66 158.9l-14.248-14.587-8.073-5.157-15.453-10.302-31.763 1.716-24.895 6.01-21.463 10.302-12.876-1.717-16.311-7.726-5.151-7.727-33.48-.858-68.678 59.234z" fill="#ab9a7e" stroke="#000" stroke-width="1.041" display="inline"/>
    <path d="m326.803 230.153 4.292 11.16-2.575 6.868-12.877-7.726 3.434-6.01 7.726-4.292z" fill="#fff" stroke="#000" stroke-width="1.041" display="inline"/>
    <path d="m346.548 183.796 13.735-12.019 7.726-.858 2.576 4.292-12.018 12.877-6.868 2.575-5.151-6.867zm24.844-59.538-42.013 10.605-27.472 11.16-24.037-6.867-8.584-10.302 22.32-50.65 20.913-25.9 13.7-5.425 15.178 2.996 15.724 23.078L373.6 83.989l-1.898 3.338-24.296-8.264-21.462-9.444-20.603 31.763-4.292 11.161 3.434 10.302 55.8-9.444 5.958 4.952 5.15 5.905zm16.363 6.312 9.835 12.59 6.206.175 22.94 25.516 5.706 6.92 10.255-6.57 12.018-26.612 6.668-21.158.91-17.724-5.505-6.616h-19.242l-14.594 3.433s-12.018 6.01-8.585 6.01c3.434 0 19.744 5.15 19.744 5.15l6.869 5.151 1.717 7.726-9.444 18.886-4.291 4.293-19.746-12.877-6.009-4.293-6.01-.858-9.442.858z" fill="#fff" stroke="#000" stroke-width="1.041"/>
    <path d="M379.736 230.938c-.266-1.972-13.507 0-13.507 0s-2.314 7.892 1.063 7.892c3.376 0 12.71-5.919 12.444-7.892z" fill="#fff" stroke="#9e0000" stroke-width="1.041"/>
  </g>
  <g display="inline">
    <g fill="#000" stroke="none">
      <path d="M397.219 183.524c1.925-3.084 6.64-2.696 14.34 2.071 6.27 3.706 14.536 4.468 23.39 5.075 14.502.995 13.344-1.162 6.537-8.021l-8.202-7.358s3.018 1.747 8.025-2.88c6.701-6.195 19.559-34.699 21.839-55.22 2.565-20.807-.855-23.942-23.087-21.377-9.12 1.14-20.103 3.82-24.663 6.67 0 0-6.513 3.26-5.516 5.112.998 1.853 9.658 2.754 9.658 2.754 16.246 2.565 20.695 7.94 20.695 13.925 0 6.27-8.44 21.703-12.43 21.703-1.425 0-6.555-3.99-11.4-8.551-9.691-9.406-14.906-10.638-24.283-7.851-5.265-1.443-12.908-2.201-19.081-5.75-1.513-.87-.552-2.092-3.546-5.854-5.412-6.8-9.524-6.197-15.225-4.772-7.125 1.71-7.41 1.71-1.995-2.28s5.13-4.56-6.84-20.236l-11.971-16.246 14.25 7.125c14.537 7.41 27.078 9.406 29.928 4.845 1.14-1.425-2.85-5.13-8.836-7.98-5.7-2.85-12.54-9.406-15.106-14.251-2.85-5.13-6.555-11.116-8.265-13.396-4.276-4.845-19.19-7.454-27.21-4.421-8.176 3.092-13.245 11.403-19.804 19.996-5.537 7.254-8.621 12.729-11.21 17.135-5.33-1.258-14.456 2.632-18.162 6.053-6.27 5.7-7.695 5.985-19.951 2.85-12.256-3.42-13.681-3.135-20.237 2.85-3.705 3.705-13.966 16.531-22.801 28.502-8.55 12.256-16.531 22.232-17.386 22.517-.855 0-6.84.57-13.111 1.14s-14.821 2.28-19.097 3.99c-6.84 2.565-7.41 3.705-5.415 11.116 1.425 4.275 7.696 17.386 14.251 28.787l11.686 20.521-7.126 17.101c-3.99 9.406-6.555 18.242-5.7 19.382.855 1.425 9.12 3.42 18.526 4.56l17.101 1.995 13.111 19.667c12.256 18.526 14.445 19.563 18.812 17.386 1.469-.733 8.55-5.7 17.956-10.26 9.406-4.846 22.231-11.972 28.502-16.247 8.873-5.856 17.856-7.845 22.616-6.036 2.885 1.097 4.219 3.589 3.036 7.461-2.489 7.997-2.375 12.974-1.258 18.162 1.943 2.078 4.45 3.027 8.098 5.495 12.578 7.729 17.386 8.265 17.671 0v-6.27l3.136 6.555c4.56 9.405 11.97 6.84 13.11-4.846.856-6.84-.854-11.4-5.415-16.246-3.42-3.705-5.2-8.557-3.775-8.557 2.85 0 12.61 13.118 12.61 16.538 0 1.14 1.71 2.28 3.991 2.28 4.275 0 7.41-5.985 7.41-14.251 0-3.15 8.505-4.925 16.44-7.737 2.119-.751 2.103-1.814 4.13-3.2 3.83.802 2.57.854 5.427.651 4.25-.302 6.144-1.499 7.35-3.395 5.986-9.69 6.841-21.947 2.281-32.777-2.28-5.7-4.275-17.53-3.99-22.66 0 0 .272-3.39 1.526-6.74M359.4 227.492c0-5.7-1.14-5.7-11.401-.285-4.846 2.565-8.55 6.556-8.55 9.12 0 6.556 8.265 15.107 14.535 15.107 2.85 0 16.566 2.565 20.304 2.606-.08 1.091-1.657 2.041-2.698 2.373-4.318 1.38-11.374.61-13.9.151-4.56-.57-5.13.855-4.846 9.121.57 5.415 0 7.98-1.14 5.7-.855-2.28-4.845-7.41-9.12-11.4-4.56-4.276-7.696-11.116-8.266-17.102-1.425-13.396-7.126-23.656-18.526-33.347-11.971-9.976-16.532-17.956-14.251-25.937 1.14-4.56 3.705-6.27 9.12-6.27 9.69-.285 27.932-8.55 39.618-18.241 15.391-13.396 10.26-13.966-7.98-1.14-15.107 10.545-19.382 12.255-36.483 13.11l-19.096 1.425 9.405-9.69c4.846-5.13 9.12-10.26 9.12-11.401 0-5.985 26.223-17.101 45.889-19.381 27.932-3.136 29.357-2.85 31.067 6.555 1.995 10.83 8.266 13.396 6.556 2.565-1.14-7.695-1.14-7.695 3.135-2.565 2.565 3.135 4.56 8.836 4.56 12.826s.855 10.26 1.71 13.68c1.425 4.846 0 6.271-7.41 7.981l-9.406 1.996 1.995 16.816c.855 9.12 3.706 21.376 5.986 27.362 4.275 9.975 3.42 27.647-1.425 30.782-1.14.855-8.266.57-15.391-.285-11.686-1.71-13.111-2.565-13.111-9.406M338.024 50.781c2.565 1.14 7.126 6.84 9.976 12.826 3.135 5.985 8.55 12.826 11.97 15.106 3.495 2.483 12.567 6.022 12.045 6.513-1.094 1.029-17.58-4.142-28.005-9.933-7.981-4.56-16.247-7.696-18.242-6.84-2.28.57-8.835 8.835-15.106 18.525-12.54 19.382-14.82 34.488-5.7 37.623 5.415 1.71 45.599-7.799 52.158-8.836 4.746-.75 10.831 3.99 10.831 7.411 0 1.14-8.55 2.85-18.811 3.705-12.256 1.14-23.372 4.276-31.637 9.12-14.821 8.266-23.372 8.837-35.058 2.851s-11.116-12.256 5.7-45.888c18.527-37.908 31.638-49.024 49.88-42.183zM336.6 85.268c12.256 18.527 12.256 17.672 3.705 15.391-12.54-3.705-22.369-9.513-24.73-11.075 2.04-4.486 7.059-14.861 10.48-14.861 1.994 0 6.555 4.845 10.545 10.545zm-54.154 4.846c0 .57-3.135 7.98-7.125 16.816-6.556 13.966-8.266 15.676-17.957 17.386-5.7.855-14.25 1.71-19.096 1.71-6.84 0-13.396 4.56-31.352 22.232-12.541 12.256-26.792 25.082-31.637 28.502l-8.836 5.985-5.13-11.4c-6.27-13.967-4.56-16.247 15.106-17.957 16.246-1.425 17.956-2.565 31.067-21.661 4.845-7.126 13.68-18.527 19.951-25.367 9.691-11.116 11.686-12.256 17.102-9.12 9.12 4.845 19.38 3.704 26.791-2.566 6.27-5.13 11.116-7.126 11.116-4.56zm51.019 13.966 12.54 3.99-9.69 4.845c-5.13 2.565-13.966 5.416-19.666 6.27-12.826 1.996-15.391-1.994-9.691-15.39 2.353-5.973 3.931-7.34 5.251-9.51 1.483.568 14.415 7.515 21.256 9.795zm126.963 6.085c.57 9.976-3.55 22.987-9.25 36.953-8.836 22.231-17.63 30.874-22.76 21.754-2.965-5.188-9.847-15.567-21.337-24.999-.864-.709-1.98-1.854-4.439-2.42-3.59-.827-4.584.584-5.518-.136-4.812-6.44-4.66-9.305 1.61-9.59 3.42 0 8.551 2.565 11.401 5.985 2.565 3.135 8.266 7.696 12.256 9.69 6.84 3.706 7.98 3.42 13.966-2.85 4.56-4.845 7.146-11.747 7.6-20.48.445-8.592-2.755-13.437-17.29-16.572-4.276-.855-12.723-.744-11.583-1.6 2.565-2.564 27.258-7.806 35.524-7.52 6.555.57 9.554-.112 9.82 11.785zm-179.122 34.102c5.415 2.566 11.686 4.56 13.966 4.56 7.41 0-1.425 10.547-13.396 15.962-5.985 2.565-10.83 5.7-10.83 6.84s5.7 3.136 12.825 4.276c11.401 1.425 12.826 2.565 11.401 7.41-2.85 9.12 3.42 20.522 17.386 32.492 11.116 9.121 12.541 11.401 9.121 14.537-2.85 2.85-7.126 3.42-16.531 1.71l-12.826-2.28.855-14.822c.855-16.246-3.42-20.236-6.27-5.985-4.276 21.662-1.71 25.652 18.526 29.357 5.7.855 13.11 4.845 16.531 8.55l6.27 6.841-8.265 2.85c-4.846 1.71-9.69 1.995-10.83.57-5.986-5.13-20.237-5.13-28.218 0l-8.265 5.416-11.401-9.12c-15.961-12.257-17.957-15.392-23.372-32.493-3.99-13.681-8.266-20.237-11.116-17.386-.57.57 1.425 8.835 4.846 18.811 5.415 16.816 13.11 27.077 29.357 38.763 3.135 2.28 5.13 4.56 4.275 5.415-1.995 1.71-36.483 19.096-38.193 19.096-.855 0-6.84-8.265-13.396-18.526-10.26-15.961-13.11-18.526-20.806-18.811-4.845-.285-12.256-1.14-16.531-2.28l-7.41-1.71 6.84-16.532 7.125-16.53-6.27-9.977c-3.705-6.27-5.13-11.685-3.99-14.82 1.995-4.276 2.565-3.99 3.99 1.71 2.28 8.835 6.84 8.265 7.41-.856 0-3.99 3.99-10.83 8.266-15.106 4.56-4.275 7.41-6.27 6.27-4.275-1.995 3.99.855 12.256 4.276 12.256 1.425 0 2.565-4.275 2.565-9.406 0-6.555 3.135-12.54 11.4-21.946 9.691-11.116 11.116-11.971 11.401-6.556 0 3.706 1.71 6.556 3.706 6.556 2.565 0 3.42-2.565 2.565-8.266l-1.14-8.55 16.53-.855c13.112-.57 17.387.285 19.097 3.705 1.425 2.565 6.84 6.84 12.256 9.405zm80.733 89.258c-.224 1.481.335 3.408.965 4.552 2.919 5.303 11.358 3.51 18.06-4.028 3.99-4.276 3.99-5.416.57-6.84-4.012-1.755-15.929-.138-17.815 1.793-1.135 1.16-1.558 3.046-1.78 4.523zm55.792-73.581c3.135 3.99 8.55 11.685 12.256 16.816 0 0 2.397 2.973 5.163 5.682 2.766 2.708 5.899 5.152 5.899 5.152s-4.589.22-14.483-2.569c-22.732-6.408-24.226-9.69-22.516-16.53 1.425-5.416 1.995-5.416 9.405 1.71 3.99 3.99 8.551 6.27 9.406 5.13 3.135-2.85-12.256-17.672-16.816-15.961-3.99 1.425-7.574-9.238-6.573-14.116.271-1.317 1.602-1.356 3.366-.595 3.532 1.523 8.456 7.235 14.893 15.28zm-25.082 19.38c-1.14.856-2.85.856-3.99 0-.855-1.14 0-1.994 1.995-1.994s2.85.855 1.995 1.995zM353.7 238.61c0 7.41-3.99 9.406-7.125 4.275-2.565-3.99.285-11.4 4.275-11.4 1.425 0 2.85 3.135 2.85 7.125zm23.712-6.592c0 1.567-9.047 6.953-10.242 3.605-1.229-3.444 1.287-4.304 4.409-4.594 3.268-.303 5.833-.579 5.833.989zm-49.364 6.592c0 2.28-1.14 4.275-2.565 4.275-3.705 0-6.27-4.56-3.99-6.84 3.135-3.135 6.555-1.71 6.555 2.565z" fill="#000" fill-opacity="1"/>
      <path d="M368.521 165.074c4.276 4.275 8.836 6.84 9.69 5.7 2.851-2.85-7.41-13.396-12.825-13.396-3.135 0-2.28 1.996 3.135 7.696z"/>
      <path d="M349.995 175.905c-6.27 5.985-7.126 8.55-4.845 12.826 1.71 3.135 5.13 5.7 7.41 5.7 5.986 0 21.947-16.246 20.522-20.806-2.28-6.556-14.821-5.416-23.087 2.28zm17.956-1.425c0 1.425-1.995 2.85-4.275 2.85s-5.415 2.565-7.126 5.7-4.56 4.846-6.27 3.99c-1.995-1.425-.57-4.56 4.56-8.835 8.266-6.84 13.111-8.266 13.111-3.705z"/>
      <path d="M327.41 230.808s-1.9 2.033-4.077 3.565c-2.178 1.531-4.937 2.56-4.937 2.56s10.266 13.269 11.768 11.552c1.502-1.717.414-4.67-.23-8.533-.65-3.903-2.524-9.144-2.524-9.144z" fill="#ffcfab" fill-opacity="1" fill-rule="evenodd" stroke="#000" stroke-dasharray="none" stroke-linecap="butt" stroke-linejoin="miter" stroke-miterlimit="4" stroke-opacity="1" stroke-width="1.2913608"/>
    </g>
    <path d="M124.19 439.45c-13.659 0-24.324-3.37-31.996-10.111s-11.508-16.32-11.508-28.737c0-9.135 1.408-17.583 4.224-25.344 2.816-7.76 6.907-14.523 12.273-20.289 5.322-5.72 11.852-10.2 19.59-13.437 7.738-3.237 16.441-4.856 26.109-4.856 5.81 0 11.608.699 17.395 2.095 5.787 1.397 11.696 3.67 17.728 6.819l-2.993 15.034h-1.198c-4.922-4.612-10.277-7.95-16.065-10.011-5.787-2.062-12.007-3.093-18.659-3.094-7.317 0-13.725 1.442-19.224 4.324-5.499 2.883-10.133 6.719-13.903 11.508-3.68 4.701-6.463 10.178-8.348 16.43-1.885 6.253-2.827 12.55-2.827 18.892 0 9.535 2.605 16.896 7.816 22.085 5.21 5.189 12.916 7.783 23.116 7.783 4.479 0 8.68-.41 12.606-1.23 3.925-.82 7.616-1.874 11.076-3.16l5.588-25.344h-26.408l2.527-11.11h39.646l-9.845 42.507a2926.464 2926.464 0 0 1-7.915 3.226c-2.35.953-5.3 1.94-8.848 2.96a90.918 90.918 0 0 1-9.479 2.195c-3.26.577-6.752.865-10.477.865zm102.37-.13c-12.55 0-22.395-3.248-29.535-9.745-7.14-6.497-10.71-15.71-10.71-27.64 0-9.135 1.375-17.65 4.124-25.543 2.75-7.894 6.697-14.812 11.841-20.754 5.1-5.854 11.375-10.477 18.825-13.87 7.45-3.392 15.765-5.088 24.945-5.088 5.72 0 11.131.699 16.231 2.095 5.1 1.397 10.333 3.604 15.7 6.62l-2.994 14.9h-.998a75.024 75.024 0 0 0-4.424-4.092c-1.485-1.264-3.714-2.65-6.685-4.157-2.439-1.286-5.344-2.362-8.714-3.227-3.37-.864-7.095-1.297-11.175-1.297-6.209 0-11.907 1.297-17.096 3.892-5.189 2.594-9.69 6.22-13.504 10.876-3.725 4.523-6.652 10.022-8.78 16.497-2.13 6.474-3.194 13.37-3.194 20.688 0 9.135 2.373 16.242 7.118 21.32 4.745 5.077 11.597 7.616 20.555 7.616 4.213 0 8.215-.477 12.007-1.43s7.24-2.162 10.344-3.625c2.883-1.375 5.477-2.816 7.783-4.324s4.28-2.905 5.92-4.19h.931l-3.126 15.3c-4.657 2.35-10.011 4.467-16.065 6.352-6.053 1.884-12.495 2.827-19.324 2.827zm95.26 0c-12.55 0-22.395-3.248-29.535-9.745-7.14-6.497-10.71-15.71-10.71-27.64 0-9.135 1.375-17.65 4.124-25.543 2.75-7.894 6.696-14.812 11.841-20.754 5.1-5.854 11.375-10.477 18.825-13.87 7.45-3.392 15.765-5.088 24.945-5.088 5.72 0 11.131.699 16.231 2.095 5.1 1.397 10.333 3.604 15.7 6.62l-2.994 14.9h-.998a75.024 75.024 0 0 0-4.424-4.092c-1.485-1.264-3.714-2.65-6.685-4.157-2.439-1.286-5.344-2.362-8.714-3.227-3.37-.864-7.095-1.297-11.175-1.297-6.209 0-11.907 1.297-17.096 3.892-5.189 2.594-9.69 6.22-13.504 10.876-3.725 4.523-6.652 10.022-8.78 16.497-2.13 6.474-3.194 13.37-3.194 20.688 0 9.135 2.373 16.242 7.118 21.32 4.745 5.077 11.597 7.616 20.555 7.616 4.213 0 8.215-.477 12.007-1.43s7.24-2.162 10.344-3.625c2.883-1.375 5.477-2.816 7.783-4.324s4.28-2.905 5.92-4.19h.931l-3.126 15.3c-4.656 2.35-10.01 4.467-16.065 6.352-6.053 1.884-12.495 2.827-19.324 2.827z" fill="#000" font-family="Sans" font-size="32.055" font-style="normal" font-weight="normal" letter-spacing="0" line-height="125%" word-spacing="0"/>
    <path d="M355.075 229.876c-.91-4.06-11.913 3.49-12.065 7.892-.151 4.4 10.696 12.953 11.534 9.105.835-3.832 1.435-12.967.531-16.997z" fill="#fff" fill-opacity="1" fill-rule="evenodd" stroke="#000" stroke-linecap="butt" stroke-linejoin="miter" stroke-opacity="1" stroke-width="1.041"/>
  </g>
</svg>
