<?xml version="1.0" encoding="UTF-8" standalone="no"?>
<!-- Created with Inkscape (http://www.inkscape.org/) -->

<svg
   width="110.21414mm"
   height="113.3565mm"
   viewBox="0 0 110.21414 113.3565"
   version="1.1"
   id="svg1"
   xml:space="preserve"
   inkscape:export-filename="Rastergrafik.png"
   inkscape:export-xdpi="96"
   inkscape:export-ydpi="96"
   xmlns:inkscape="http://www.inkscape.org/namespaces/inkscape"
   xmlns:sodipodi="http://sodipodi.sourceforge.net/DTD/sodipodi-0.dtd"
   xmlns="http://www.w3.org/2000/svg"
   xmlns:svg="http://www.w3.org/2000/svg"><sodipodi:namedview
     id="namedview1"
     pagecolor="#ffffff"
     bordercolor="#000000"
     borderopacity="0.25"
     inkscape:showpageshadow="2"
     inkscape:pageopacity="0.0"
     inkscape:pagecheckerboard="0"
     inkscape:deskcolor="#d1d1d1"
     inkscape:document-units="mm"
     inkscape:export-bgcolor="#ffffffff"><inkscape:page
       x="-2.2411081e-22"
       y="0"
       width="110.21414"
       height="113.3565"
       id="page2"
       margin="0"
       bleed="0" /></sodipodi:namedview><defs
     id="defs1" /><g
     inkscape:label="Ebene 1"
     inkscape:groupmode="layer"
     id="layer1"
     transform="translate(-42.988757,-12.435589)"><path
       id="path1"
       style="display:inline;fill:#000000"
       d="m 95.768997,29.908594 c -0.312741,0.0074 -0.727186,0.01999 -1.088946,0.05493 -3.318076,0.320469 -7.037558,0.704142 -9.899654,1.416968 -2.875626,0.716196 -3.142731,0.742036 -3.58066,0.345715 -0.260309,-0.235576 -0.473356,-0.541099 -0.473356,-0.678512 0,-0.137413 -0.400431,-0.922298 -0.889352,-1.744596 -2.682926,-4.512314 -3.013503,-5.199729 -4.412133,-9.168433 -0.461553,-1.309687 -0.942489,-2.619375 -1.069186,-2.910416 -0.126697,-0.291042 -0.476432,-1.202746 -0.776697,-2.026233 -0.300266,-0.823488 -0.84862,-1.726235 -1.0501,-1.893448 -0.20148,-0.167213 -0.796724,-0.667653 -1.479197,-0.544234 -0.682473,0.123419 -1.535207,0.93597 -1.959834,1.68579 -0.735,1.297886 -0.724543,2.918878 -0.757577,4.410066 -0.05086,2.295833 0.268591,4.617007 0.864547,6.834725 0.235994,0.878199 0.658123,1.698005 1.0604,2.513542 0.448877,0.910009 1.057437,2.13651 1.505335,2.645833 0.447898,0.509323 1.219241,1.388197 1.714107,1.952853 0.955427,1.090171 1.106589,1.486731 0.567407,1.486731 -0.402173,0 -5.141646,2.733918 -7.711674,4.448307 -2.244231,1.49706 -5.662049,4.850572 -7.336503,7.198527 -2.93916,4.121353 -3.967111,6.83958 -5.389852,14.253394 -0.345972,1.802842 -0.824988,3.339895 -0.876949,3.525882 -0.252228,0.902818 -0.852799,5.556847 -1.376099,6.601777 -2.704207,5.522085 -6.4026,10.133137 -7.554803,14.749067 -1.137971,4.558913 -0.882805,8.577512 -0.403099,11.934659 0.36481,2.553066 1.358028,5.847232 2.714319,8.491102 1.612937,3.14416 3.716897,6.12119 6.318897,8.51221 2.750622,2.52758 6.042742,4.55724 9.529858,5.89687 2.018079,0.77528 4.233544,0.91247 6.381474,1.15761 2.038947,0.2327 4.098568,0.36565 6.149511,0.29432 2.670662,-0.0929 5.353637,-1.52096 7.961692,-0.93863 1.734501,0.38728 2.982555,1.93712 4.526545,2.81722 0.600785,0.34246 1.211946,0.66907 1.840687,0.957 0.704605,0.32267 1.42567,0.61217 2.15956,0.86115 0.586928,0.19912 1.178695,0.40007 1.789636,0.5044 1.225493,0.20929 2.478945,0.24153 3.722172,0.23694 1.739631,-0.006 3.483658,-0.12383 5.205797,-0.36998 2.18455,-0.31225 4.40002,-0.63639 6.47065,-1.39943 1.78232,-0.6568 3.18285,-2.21306 5.01949,-2.6976 2.33028,-0.61477 4.82001,-0.0697 7.22816,-0.1644 2.47542,-0.0973 4.98879,0.0588 7.42042,-0.41482 3.61005,-0.70319 7.28542,-1.67683 10.44222,-3.56403 3.16805,-1.89393 5.7522,-4.69903 8.11167,-7.53741 0.96352,-1.15909 1.7037,-2.49345 2.42091,-3.81914 0.93078,-1.72046 1.81466,-3.4848 2.42956,-5.34174 0.96619,-2.917816 1.82963,-5.941703 1.94635,-9.013105 0.10736,-2.825241 -0.25793,-5.721835 -1.15597,-8.4027 -1.21364,-3.622997 -5.36723,-9.818737 -5.59332,-10.005297 -0.5983,-1.095025 -0.7829,-1.613379 -1.08543,-2.305297 -0.29415,-0.672749 -0.42398,-1.568898 -0.87297,-3.277668 -3.01644,-11.479999 -7.5633,-20.951898 -12.66228,-26.378235 -2.7752,-2.95337 -6.3074,-5.483801 -10.26242,-7.351489 -1.58408,-0.748053 -1.83427,-1.121601 -1.18649,-1.771985 1.52334,-1.529454 4.08452,-6.770908 4.67103,-9.559106 0.5423,-2.577942 0.80477,-7.636119 0.4439,-8.552966 -0.3085,-0.783804 -0.99291,-1.338641 -1.63917,-1.419552 l -4e-5,2.7e-5 c -0.21542,-0.02697 -0.42637,-0.001 -0.61805,0.0863 -0.54271,0.247275 -2.13358,2.722981 -3.69539,5.75107 -1.6229,3.146489 -2.60034,4.968195 -3.42098,6.446118 -0.79138,1.497921 -1.55472,3.185669 -2.43499,4.72736 -0.0215,0.05216 -0.0433,0.104127 -0.063,0.157096 -0.0601,0.166427 -0.13459,0.327384 -0.20309,0.49041 -0.0787,0.196437 -0.18765,0.378026 -0.29146,0.561722 -0.0795,0.148379 -0.15733,0.297474 -0.24133,0.443384 -0.0935,0.131751 -0.18964,0.262883 -0.31471,0.365869 -0.16297,0.1003 -0.27631,0.07286 -0.44028,0.0041 -0.0745,-0.03265 -0.14781,-0.05867 -0.22841,-0.06976 -0.22971,-0.02088 -0.46075,-0.01924 -0.69091,-0.03204 -0.32937,-0.0122 -0.65389,-0.06927 -0.97669,-0.131775 -0.31185,-0.06186 -0.62075,-0.133245 -0.93482,-0.182935 -0.37603,-0.06722 -0.75284,-0.131466 -1.12707,-0.208256 -0.32964,-0.07854 -0.66328,-0.136915 -0.99477,-0.206705 -0.37227,-0.08531 -0.74739,-0.156406 -1.12344,-0.222726 -0.39229,-0.06015 -0.61169,-0.07272 -0.91539,-0.123351 -0.22608,-0.03769 -0.42733,-0.104066 -0.67438,-0.134227 -0.21089,-0.02575 -0.50818,-0.01261 -0.76155,-0.03126 -0.53536,-0.0394 -1.06581,-0.134038 -1.60139,-0.170238 -0.62658,-0.04235 -1.25529,-0.04488 -1.88322,-0.05476 -0.535874,-0.0084 -1.071922,0.0031 -1.607819,-0.0038 -0.481797,-0.0062 -0.963314,-0.03938 -1.445118,-0.03373 -0.195193,0.0023 -0.389882,0.02371 -0.584977,0.02739 m -1.745153,0.984464 c 4.3212,-0.08312 10.208847,0.215957 13.405897,0.760677 1.81153,0.308651 3.38146,0.615343 3.48868,0.681613 0.10721,0.06627 -0.0417,0.656035 -0.33125,1.310514 -0.34661,0.783633 -0.49896,1.617484 -0.44596,2.442228 0.0793,1.234548 0.0941,1.253502 1.05213,1.333252 1.17367,0.09771 3.10591,-0.818865 5.33042,-2.528528 1.53938,-1.183108 1.53925,-1.183136 2.73989,-0.846977 0.66036,0.184888 2.13442,0.897404 3.27576,1.583366 1.14133,0.685962 2.23019,1.309525 2.4195,1.385445 0.83871,0.336362 5.50495,4.529121 6.81818,6.126242 4.23702,5.152963 7.99673,13.277953 11.01277,23.79958 1.34749,4.700791 1.52717,5.134998 3.06131,7.393864 1.69627,2.497589 4.10535,6.183779 5.06067,9.704834 0.84819,3.12619 1.14692,6.536477 0.47801,9.705868 -1.48316,7.027375 -4.60188,14.163805 -9.66608,19.256705 -3.65051,3.6712 -7.70281,5.94256 -13.84153,7.04609 -2.76044,0.4962 -3.78991,0.54398 -9.19375,0.42685 -3.34698,-0.0726 -6.3514,-0.2171 -6.67608,-0.32144 -0.56969,-0.18306 -0.58432,-0.27197 -0.42323,-2.54145 0.10916,-1.53785 0.0729,-2.35178 -0.10439,-2.35178 -0.31092,0 -0.60151,1.23529 -0.60151,2.5554 0,0.98673 -1.05267,3.30159 -1.94769,4.28346 -1.13273,1.24264 -3.29691,1.95333 -8.63564,2.83496 -5.067486,0.83683 -9.955734,0.0444 -13.582638,-2.20141 -1.587756,-0.98317 -2.549583,-3.89096 -2.554883,-7.72356 -0.0032,-2.30935 -0.497791,-1.23004 -0.586011,1.27899 -0.07789,2.21524 -0.07757,2.21501 -2.38125,2.94607 -5.205031,1.65175 -11.691151,1.64868 -18.466056,-0.0109 -4.771482,-1.16831 -6.990701,-2.59795 -11.639083,-7.49877 -2.317963,-2.44383 -3.234701,-3.76528 -4.889107,-7.04764 -2.376577,-4.715103 -3.199168,-8.70817 -2.982247,-14.473528 0.122086,-3.244805 0.228575,-3.892853 0.958081,-5.834269 1.210719,-3.222057 2.740801,-6.146174 5.134054,-9.811287 2.131422,-3.264135 2.131159,-3.264287 3.269051,-8.838221 2.741484,-13.429078 2.893961,-13.89578 6.150012,-18.827274 1.415722,-2.144202 4.275731,-5.096052 6.562907,-6.773747 3.620873,-2.65599 8.197545,-5.132503 9.484175,-5.132503 0.455838,0 1.533253,0.36061 2.394686,0.801501 2.063916,1.056335 2.935321,1.255403 3.845244,0.8785 0.977445,-0.404871 1.146775,-1.040201 0.588594,-2.210718 -0.333999,-0.700402 -0.37765,-1.035184 -0.162781,-1.250053 0.42742,-0.42742 5.928398,-1.717503 8.939506,-2.096513 0.934541,-0.117631 2.201239,-0.187784 3.641639,-0.215491 z m 22.945367,33.612936 c -2.16968,0.09193 -3.33261,0.538276 -5.79034,1.843298 -4.12626,2.19099 -7.31773,5.278321 -8.71317,8.42946 -1.27525,2.879696 -1.44895,3.759128 -1.56993,7.9375 -0.13901,4.801448 0.26082,7.012296 2.10272,11.624096 1.29316,3.237859 2.78155,5.313229 5.3914,7.517893 2.65912,2.24628 4.88398,3.27388 8.7111,4.02353 1.20554,0.23615 2.96044,0.32296 5.02708,0.24856 5.10466,-0.18381 9.24588,-1.41629 12.45712,-3.70778 2.0472,-1.46085 2.48928,-1.9091 3.85971,-3.910364 1.74361,-2.546221 2.1202,-3.971721 2.27015,-8.597408 0.12215,-3.768091 0.0806,-4.250653 -0.5979,-7.011459 -0.40073,-1.630674 -0.95068,-3.406623 -1.22266,-3.946529 -0.27198,-0.539906 -0.49454,-1.089573 -0.49454,-1.221631 0,-0.747552 -2.54342,-4.455314 -4.36563,-6.363952 -2.60195,-2.725359 -5.20918,-4.520071 -8.40827,-5.787761 -2.30915,-0.915035 -2.63406,-0.972309 -6.0663,-1.070219 -1.03224,-0.02944 -1.86731,-0.0383 -2.59054,-0.0072 z m -42.050144,1.341003 c -0.643431,-0.03739 -1.289323,-0.03622 -1.936316,0.0041 -3.10557,0.193849 -6.235772,1.28552 -9.229411,3.296957 -3.488549,2.34397 -7.173294,6.266432 -8.64495,9.202539 -1.139659,2.273738 -1.614302,3.845452 -2.074809,6.866247 -0.975486,6.398918 0.865064,13.134879 4.635893,16.966421 2.607626,2.64955 4.339436,3.62499 8.234639,4.63692 2.380491,0.61842 3.334849,0.72464 6.66781,0.74414 5.595079,0.0327 7.899159,-0.69541 10.913029,-3.44992 2.957335,-2.70283 6.053875,-8.284303 7.174239,-12.931517 0.712234,-2.954331 1.019708,-7.193557 0.743624,-10.243819 -0.337327,-3.72689 -1.357506,-6.031649 -3.838009,-8.669238 -3.760503,-3.99865 -8.141723,-6.161104 -12.645739,-6.422864 z M 136.13639,81.76659 c 0.1444,0.07346 0.15245,0.256527 0.15245,0.615467 0,0.405903 -0.20435,1.032878 -0.45372,1.392679 -1.93554,2.792678 -8.53238,8.141749 -12.11399,9.822657 -0.7276,0.341477 -1.38241,0.694161 -1.45521,0.783931 -0.30129,0.371734 -3.4677,1.308265 -5.68854,1.682585 -2.2872,0.385505 -4.16884,0.467402 -5.29167,0.22996 -0.29105,-0.06155 -0.79706,-0.168875 -1.12448,-0.238745 -0.32742,-0.06987 -0.59366,-0.273557 -0.59066,-0.452686 0.003,-0.179128 1.14531,-1.088908 2.53887,-2.021582 2.53374,-1.695772 2.53413,-1.695887 3.32124,-1.230932 1.6742,0.988975 3.67081,-0.376347 3.26337,-2.231389 -0.15737,-0.716507 -0.0603,-0.847572 1.23765,-1.674316 1.21058,-0.771116 4.02146,-2.328579 6.30297,-3.49281 2.28931,-1.168209 7.15219,-2.879139 8.92969,-3.141411 0.54689,-0.0807 0.82764,-0.116841 0.97203,-0.04341 z m -75.70597,0.684713 c 0.192128,-0.0063 0.426619,0.06055 0.597379,0.203605 0.138245,0.115814 0.727915,0.371003 1.309998,0.566891 0.582084,0.195888 1.713177,0.64936 2.513542,1.008207 0.800365,0.358847 1.871927,0.835441 2.38125,1.05885 2.422405,1.062565 6.46119,3.057907 7.920963,3.913456 1.575396,0.923315 1.61655,0.975526 1.453658,1.843815 -0.137882,0.734972 -0.04759,1.013842 0.508496,1.56993 0.815404,0.815404 1.906634,0.877473 2.67839,0.152446 0.557345,-0.523599 0.557345,-0.523644 2.398303,0.696598 2.00801,1.330969 3.031856,2.180625 3.031856,2.516126 0,0.118527 -0.290034,0.187195 -0.644405,0.152445 -0.35437,-0.03475 -1.872417,-0.152804 -3.373437,-0.262 -4.866086,-0.353997 -8.360069,-1.468577 -11.362614,-3.625101 -3.089278,-2.218819 -9.75496,-8.751777 -9.75496,-9.560657 0,-0.148669 0.149453,-0.228295 0.341581,-0.234611 z m 37.407536,31.499887 c -4.716895,0.025 -6.353752,0.34245 -6.483325,1.25729 -0.166237,1.1737 1.687481,2.54439 3.948596,2.91972 2.549328,0.42317 4.087784,0.32863 6.377393,-0.39222 3.01702,-0.94989 3.65197,-1.30796 3.65197,-2.06086 0,-0.34224 -0.14883,-0.73531 -0.33073,-0.87333 -0.73689,-0.55913 -3.36297,-0.8708 -7.163904,-0.8506 z"
       sodipodi:nodetypes="casssssssszaaaassssssscssaaaaaaaaaaaaaaaaaaaaaacssssssscccscccccccccccccccasaaaaaccssccssssssssaaascsssssssssccsssssssssssssscccsssssscsssssssssccccssscscssssccsssscsssssssssssssssssssssssssssscsssssc" /></g></svg>
